<?xml version="1.0" encoding="UTF-8" standalone="no"?>
<!-- Created with Inkscape (http://www.inkscape.org/) -->

<svg
   width="64.71492mm"
   height="67.726105mm"
   viewBox="0 0 64.71492 67.726105"
   version="1.1"
   id="svg5"
   xml:space="preserve"
   sodipodi:docname="logo.svg"
   inkscape:version="1.2.1 (9c6d41e, 2022-07-14)"
   xmlns:inkscape="http://www.inkscape.org/namespaces/inkscape"
   xmlns:sodipodi="http://sodipodi.sourceforge.net/DTD/sodipodi-0.dtd"
   xmlns="http://www.w3.org/2000/svg"
   xmlns:svg="http://www.w3.org/2000/svg"><sodipodi:namedview
     id="namedview7"
     pagecolor="#ffffff"
     bordercolor="#000000"
     borderopacity="0.25"
     inkscape:showpageshadow="2"
     inkscape:pageopacity="0.0"
     inkscape:pagecheckerboard="0"
     inkscape:deskcolor="#d1d1d1"
     inkscape:document-units="mm"
     showgrid="false"
     inkscape:zoom="1.5272923"
     inkscape:cx="307.40678"
     inkscape:cy="263.86567"
     inkscape:window-width="1920"
     inkscape:window-height="1572"
     inkscape:window-x="0"
     inkscape:window-y="0"
     inkscape:window-maximized="0"
     inkscape:current-layer="layer1"
     showguides="false" /><defs
     id="defs2" /><g
     inkscape:label="Layer 1"
     inkscape:groupmode="layer"
     id="layer1"
     transform="translate(-31.873921,-26.262843)"><path
       id="path856"
       style="fill:#000000;stroke-width:0.264583"
       d="m 63.644075,26.262844 -7.136515,4.706689 c -7.849926,5.17723 -7.669084,4.993496 -5.89008,5.984648 0.1061,0.05911 0.190718,0.105824 0.278536,0.154512 l 7.62124,5.015715 -1.632458,1.101225 c -0.0441,0.04129 -0.08395,0.08169 -0.131775,0.124023 l -8.019149,5.410523 0.0041,0.0057 -4.139799,2.711462 v 3.143474 3.144 l 0.555005,0.33279 c 1.260682,0.75633 15.641907,9.79706 18.363221,11.54401 l 0.56534,0.36276 10.03608,-6.72878 c 10.56219,-7.08195 16.64122,-11.062381 16.89509,-11.062381 0.0836,0 0.15193,1.365729 0.15193,3.035471 v 3.03599 l -0.8599,0.44132 c -0.86622,0.44423 -5.73712,3.63315 -18.81177,12.31656 -8.373472,5.56123 -6.897667,5.27862 -11.614275,2.22622 -5.836668,-3.77721 -18.340868,-11.73541 -20.506207,-13.0509 l -1.91823,-1.1653 v -4.43694 -4.437455 l 0.522966,-0.472839 c 0.287502,-0.26019 2.872584,-2.035162 5.744869,-3.943946 6.190292,-4.113758 5.942914,-3.664727 2.970878,-5.388301 -2.929646,-1.699002 -1.742161,-2.048537 -8.577254,2.522843 l -5.820834,3.893302 -0.165881,1.190625 c -0.09123,0.65484 -0.185743,4.07015 -0.210323,7.589721 l -0.04496,6.39909 0.740006,0.54467 c 0.40685,0.29956 2.672469,1.76583 5.034835,3.2582 12.225594,7.72312 21.623324,13.73556 23.750488,15.19494 2.927776,2.00856 0.849769,2.91063 15.081252,-6.54586 6.69389,-4.44791 13.92598,-9.21048 16.07137,-10.58333 l 3.90054,-2.49597 0.002,-7.27656 0.002,-7.276042 -4.15581,-2.645834 c -2.28568,-1.455084 -4.25023,-2.685183 -4.36563,-2.733683 -0.11543,-0.0485 -0.20981,1.289934 -0.20981,2.974496 v 3.062862 l -9.06198,6.063712 c -4.98402,3.335059 -10.296633,6.911339 -11.805997,7.946799 l -2.744535,1.88257 -0.82734,-0.50126 c -0.45515,-0.27557 -2.851947,-1.78609 -5.325773,-3.3569 -2.473844,-1.57076 -5.148277,-3.25514 -5.943307,-3.74292 -0.795022,-0.48778 -1.548043,-0.98942 -1.673283,-1.11466 l -0.227893,-0.22738 8.023283,-5.319053 c 4.412748,-2.925366 8.658514,-5.750231 9.434566,-6.277653 l 1.410767,-0.959115 -0.8816,-0.594279 C 67.617057,40.919753 65.404223,39.552463 63.185057,38.207851 58.415499,35.317955 58.684171,35.944574 61.411005,34.07322 l 2.260844,-1.551843 0.451135,0.293005 c 0.24807,0.16117 2.772874,1.749209 5.61051,3.528983 2.837627,1.779782 5.839237,3.711295 6.670397,4.292245 l 1.51154,1.056266 -4.02457,2.69596 c -11.263403,7.544266 -14.476117,9.753019 -14.476117,9.953399 0,0.17707 4.332015,3.16363 4.588867,3.16363 0.0399,0 3.361407,-2.17291 7.38094,-4.828646 4.01956,-2.655734 8.39139,-5.524296 9.7157,-6.374288 l 2.40812,-1.545642 -0.0744,-3.054078 -0.0744,-3.054077 -5.15938,-3.310909 C 72.408641,31.620647 65.147097,27.066224 64.241455,26.582204 Z m 32.503446,41.087411 c -0.65126,0.0487 -3.44667,1.85394 -18.47639,11.83804 -7.34878,4.88164 -13.447496,8.91453 -13.552666,8.96173 -0.10517,0.0472 -2.069721,-1.14834 -4.365625,-2.65617 -2.295914,-1.50783 -7.129258,-4.64206 -10.740946,-6.96495 -3.611686,-2.3229 -8.850486,-5.72879 -11.641667,-7.56905 -5.980596,-3.94302 -5.508153,-4.18901 -5.41414,2.29392 l 32.765959,20.73517 31.742255,-21.17494 0.12454,-5.32319 -0.33642,-0.12919 c -0.0273,-0.0105 -0.0615,-0.0146 -0.1049,-0.0114 z"
       inkscape:export-filename="logo1.svg"
       inkscape:export-xdpi="96"
       inkscape:export-ydpi="96" /></g></svg>
